<svg xmlns="http://www.w3.org/2000/svg" width="1280" height="420" viewBox="0 0 1280 420" fill="none">
  <defs>
    <linearGradient id="bg" x1="0" y1="0" x2="1" y2="1">
      <stop offset="0%" stop-color="#090B10"/>
      <stop offset="100%" stop-color="#11151D"/>
    </linearGradient>
    <linearGradient id="accent" x1="0" y1="0" x2="1" y2="0">
      <stop offset="0%" stop-color="#FFCF70"/>
      <stop offset="50%" stop-color="#FF8B2B"/>
      <stop offset="100%" stop-color="#FF5A36"/>
    </linearGradient>
    <pattern id="grid" width="32" height="32" patternUnits="userSpaceOnUse">
      <path d="M32 0 L0 0 0 32" fill="none" stroke="#1C2330" stroke-width="0.5" opacity="0.55"/>
    </pattern>
    <linearGradient id="bannerPlate" x1="0" y1="0" x2="1" y2="1">
      <stop offset="0%" stop-color="#1A1D24"/>
      <stop offset="55%" stop-color="#11141B"/>
      <stop offset="100%" stop-color="#0B0D12"/>
    </linearGradient>
    <linearGradient id="bannerRing" x1="0" y1="0" x2="1" y2="1">
      <stop offset="0%" stop-color="#FFCF70"/>
      <stop offset="50%" stop-color="#FF8B2B"/>
      <stop offset="100%" stop-color="#FF5A36"/>
    </linearGradient>
    <radialGradient id="bannerGlow" cx="0" cy="0" r="1" gradientUnits="userSpaceOnUse" gradientTransform="translate(0.5 0.5) rotate(90) scale(0.5)">
      <stop offset="0%" stop-color="#FFD98B" stop-opacity="0.95"/>
      <stop offset="100%" stop-color="#FFD98B" stop-opacity="0"/>
    </radialGradient>
    <linearGradient id="bannerSpark" x1="0" y1="0" x2="0" y2="1">
      <stop offset="0%" stop-color="#FFF4C7"/>
      <stop offset="55%" stop-color="#FFD36B"/>
      <stop offset="100%" stop-color="#FFAA3B"/>
    </linearGradient>
  </defs>

  <rect width="1280" height="420" fill="url(#bg)"/>
  <rect width="1280" height="420" fill="url(#grid)"/>
  <rect x="0" y="0" width="1280" height="3" fill="url(#accent)"/>

  <g transform="translate(112 92)">
    <rect x="0" y="0" width="184" height="184" rx="48" fill="url(#bannerPlate)"/>
    <rect x="2" y="2" width="180" height="180" rx="46" stroke="#FFFFFF" stroke-opacity="0.08" stroke-width="4"/>
    <circle cx="92" cy="92" r="56" fill="url(#bannerGlow)"/>
    <circle cx="92" cy="92" r="44" stroke="url(#bannerRing)" stroke-width="12"/>
    <circle cx="92" cy="92" r="31" fill="#0F1218" fill-opacity="0.72"/>
    <g fill="url(#bannerSpark)">
      <path d="M92 52 L104 84 L136 96 L104 108 L92 140 L80 108 L48 96 L80 84 Z"/>
      <path d="M134 48 L140 62 L154 68 L140 74 L134 88 L128 74 L114 68 L128 62 Z"/>
      <path d="M52 118 L56 128 L66 132 L56 136 L52 146 L48 136 L38 132 L48 128 Z"/>
    </g>
  </g>

  <text x="356" y="182" font-family="Helvetica, Arial, sans-serif" font-size="92" font-weight="700" letter-spacing="-2.8" fill="#E8EAED">Spark</text>
  <text x="360" y="232" font-family="Helvetica, Arial, sans-serif" font-size="24" fill="#9AA4B2">Chat with AI. Deploy an agent. Spark something.</text>

  <g font-family="Helvetica, Arial, sans-serif" font-size="13" fill="#CBD5E1">
    <g transform="translate(360,272)">
      <rect width="142" height="30" rx="15" fill="#161B22" stroke="#2A313C" stroke-width="1"/>
      <circle cx="17" cy="15" r="3.5" fill="#FF8B2B"/>
      <text x="30" y="19">Hermes agent</text>
    </g>
    <g transform="translate(514,272)">
      <rect width="118" height="30" rx="15" fill="#161B22" stroke="#2A313C" stroke-width="1"/>
      <circle cx="17" cy="15" r="3.5" fill="#22C55E"/>
      <text x="30" y="19">15 providers</text>
    </g>
    <g transform="translate(644,272)">
      <rect width="150" height="30" rx="15" fill="#161B22" stroke="#2A313C" stroke-width="1"/>
      <circle cx="17" cy="15" r="3.5" fill="#38BDF8"/>
      <text x="30" y="19">GitHub workflow</text>
    </g>
    <g transform="translate(806,272)">
      <rect width="132" height="30" rx="15" fill="#161B22" stroke="#2A313C" stroke-width="1"/>
      <circle cx="17" cy="15" r="3.5" fill="#F59E0B"/>
      <text x="30" y="19">Orchestrator</text>
    </g>
  </g>

  <text x="360" y="356" font-family="Menlo, Monaco, monospace" font-size="13" fill="#56606E">macOS · Windows · Linux  ·  v1.0.0-beta.4  ·  PolyForm Shield 1.0.0</text>
</svg>
